<svg xmlns="http://www.w3.org/2000/svg" xmlns:xlink="http://www.w3.org/1999/xlink" width="424" zoomAndPan="magnify" viewBox="0 0 318 62.249996" height="83" preserveAspectRatio="xMidYMid meet" version="1.0"><defs><g/><clipPath id="44a44d71a4"><path d="M 37 8 L 59 8 L 59 33 L 37 33 Z M 37 8 " clip-rule="nonzero"/></clipPath><clipPath id="49a475b13b"><path d="M 29.488281 0 L 78.753906 16.25 L 63.898438 61.292969 L 14.632812 45.042969 Z M 29.488281 0 " clip-rule="nonzero"/></clipPath><clipPath id="d3ad301c31"><path d="M 29.480469 0 L 78.746094 16.246094 L 63.890625 61.289062 L 14.625 45.039062 Z M 29.480469 0 " clip-rule="nonzero"/></clipPath><clipPath id="456e3647d5"><path d="M 29.480469 0 L 78.746094 16.246094 L 63.890625 61.289062 L 14.625 45.039062 Z M 29.480469 0 " clip-rule="nonzero"/></clipPath><clipPath id="bbd552f65f"><path d="M 22 16 L 73 16 L 73 54 L 22 54 Z M 22 16 " clip-rule="nonzero"/></clipPath><clipPath id="0faa53a155"><path d="M 29.488281 0 L 78.753906 16.25 L 63.898438 61.292969 L 14.632812 45.042969 Z M 29.488281 0 " clip-rule="nonzero"/></clipPath><clipPath id="0886f74ace"><path d="M 29.480469 0 L 78.746094 16.246094 L 63.890625 61.289062 L 14.625 45.039062 Z M 29.480469 0 " clip-rule="nonzero"/></clipPath><clipPath id="a654220c1e"><path d="M 29.480469 0 L 78.746094 16.246094 L 63.890625 61.289062 L 14.625 45.039062 Z M 29.480469 0 " clip-rule="nonzero"/></clipPath></defs><g fill="#4d7051" fill-opacity="1"><g transform="translate(75.705624, 43.65773)"><g><path d="M 6.21875 -3.484375 L 15.4375 -3.484375 L 15.4375 0 L 1.875 0 L 1.875 -21.078125 L 6.21875 -21.078125 Z M 6.21875 -3.484375 "/></g></g></g><g fill="#4d7051" fill-opacity="1"><g transform="translate(97.686369, 43.65773)"><g><path d="M 8.8125 0.296875 C 6.519531 0.296875 4.648438 -0.40625 3.203125 -1.8125 C 1.765625 -3.226562 1.046875 -5.109375 1.046875 -7.453125 L 1.046875 -7.859375 C 1.046875 -9.429688 1.347656 -10.835938 1.953125 -12.078125 C 2.554688 -13.316406 3.414062 -14.269531 4.53125 -14.9375 C 5.644531 -15.613281 6.914062 -15.953125 8.34375 -15.953125 C 10.488281 -15.953125 12.175781 -15.273438 13.40625 -13.921875 C 14.632812 -12.566406 15.25 -10.648438 15.25 -8.171875 L 15.25 -6.46875 L 5.28125 -6.46875 C 5.414062 -5.445312 5.820312 -4.625 6.5 -4 C 7.1875 -3.382812 8.050781 -3.078125 9.09375 -3.078125 C 10.695312 -3.078125 11.953125 -3.660156 12.859375 -4.828125 L 14.921875 -2.53125 C 14.296875 -1.644531 13.445312 -0.953125 12.375 -0.453125 C 11.300781 0.046875 10.113281 0.296875 8.8125 0.296875 Z M 8.34375 -12.5625 C 7.507812 -12.5625 6.832031 -12.28125 6.3125 -11.71875 C 5.800781 -11.164062 5.472656 -10.367188 5.328125 -9.328125 L 11.140625 -9.328125 L 11.140625 -9.65625 C 11.117188 -10.582031 10.867188 -11.296875 10.390625 -11.796875 C 9.910156 -12.304688 9.226562 -12.5625 8.34375 -12.5625 Z M 8.34375 -12.5625 "/></g></g></g><g fill="#4d7051" fill-opacity="1"><g transform="translate(119.638165, 43.65773)"><g><path d="M 10.6875 0 C 10.488281 -0.375 10.347656 -0.84375 10.265625 -1.40625 C 9.242188 -0.269531 7.925781 0.296875 6.3125 0.296875 C 4.78125 0.296875 3.507812 -0.144531 2.5 -1.03125 C 1.488281 -1.925781 0.984375 -3.050781 0.984375 -4.40625 C 0.984375 -6.0625 1.597656 -7.332031 2.828125 -8.21875 C 4.054688 -9.101562 5.832031 -9.550781 8.15625 -9.5625 L 10.09375 -9.5625 L 10.09375 -10.46875 C 10.09375 -11.1875 9.90625 -11.765625 9.53125 -12.203125 C 9.15625 -12.640625 8.566406 -12.859375 7.765625 -12.859375 C 7.066406 -12.859375 6.515625 -12.6875 6.109375 -12.34375 C 5.710938 -12.007812 5.515625 -11.546875 5.515625 -10.953125 L 1.328125 -10.953125 C 1.328125 -11.859375 1.609375 -12.695312 2.171875 -13.46875 C 2.734375 -14.238281 3.523438 -14.84375 4.546875 -15.28125 C 5.566406 -15.726562 6.710938 -15.953125 7.984375 -15.953125 C 9.921875 -15.953125 11.453125 -15.46875 12.578125 -14.5 C 13.710938 -13.53125 14.28125 -12.164062 14.28125 -10.40625 L 14.28125 -3.625 C 14.289062 -2.132812 14.5 -1.007812 14.90625 -0.25 L 14.90625 0 Z M 7.21875 -2.90625 C 7.832031 -2.90625 8.398438 -3.039062 8.921875 -3.3125 C 9.453125 -3.59375 9.84375 -3.960938 10.09375 -4.421875 L 10.09375 -7.125 L 8.53125 -7.125 C 6.4375 -7.125 5.320312 -6.398438 5.1875 -4.953125 L 5.171875 -4.703125 C 5.171875 -4.179688 5.351562 -3.75 5.71875 -3.40625 C 6.082031 -3.070312 6.582031 -2.90625 7.21875 -2.90625 Z M 7.21875 -2.90625 "/></g></g></g><g fill="#4d7051" fill-opacity="1"><g transform="translate(141.459695, 43.65773)"><g><path d="M 2.75 0 L 2.75 -12.59375 L 0.421875 -12.59375 L 0.421875 -15.65625 L 2.75 -15.65625 L 2.75 -16.984375 C 2.75 -18.742188 3.253906 -20.109375 4.265625 -21.078125 C 5.273438 -22.046875 6.6875 -22.53125 8.5 -22.53125 C 9.070312 -22.53125 9.78125 -22.4375 10.625 -22.25 L 10.578125 -19 C 10.234375 -19.09375 9.8125 -19.140625 9.3125 -19.140625 C 7.738281 -19.140625 6.953125 -18.398438 6.953125 -16.921875 L 6.953125 -15.65625 L 10.0625 -15.65625 L 10.0625 -12.59375 L 6.953125 -12.59375 L 6.953125 0 Z M 2.75 0 "/></g></g></g><g fill="#4d7051" fill-opacity="1"><g transform="translate(158.022444, 43.65773)"><g><path d="M 4.9375 0 L 2.25 0 L 2.25 -22.234375 L 4.9375 -22.234375 Z M 4.9375 0 "/></g></g></g><g fill="#4d7051" fill-opacity="1"><g transform="translate(171.14507, 43.65773)"><g><path d="M 8.53125 0.296875 C 6.40625 0.296875 4.675781 -0.398438 3.34375 -1.796875 C 2.007812 -3.191406 1.34375 -5.054688 1.34375 -7.390625 L 1.34375 -7.890625 C 1.34375 -9.441406 1.640625 -10.828125 2.234375 -12.046875 C 2.828125 -13.265625 3.65625 -14.21875 4.71875 -14.90625 C 5.789062 -15.601562 6.945312 -15.953125 8.1875 -15.953125 C 10.226562 -15.953125 11.8125 -15.28125 12.9375 -13.9375 C 14.0625 -12.59375 14.625 -10.671875 14.625 -8.171875 L 14.625 -7.0625 L 4.03125 -7.0625 C 4.0625 -5.519531 4.507812 -4.269531 5.375 -3.3125 C 6.238281 -2.363281 7.335938 -1.890625 8.671875 -1.890625 C 9.617188 -1.890625 10.421875 -2.082031 11.078125 -2.46875 C 11.734375 -2.851562 12.304688 -3.367188 12.796875 -4.015625 L 14.421875 -2.734375 C 13.117188 -0.710938 11.15625 0.296875 8.53125 0.296875 Z M 8.1875 -13.75 C 7.113281 -13.75 6.207031 -13.351562 5.46875 -12.5625 C 4.738281 -11.78125 4.285156 -10.679688 4.109375 -9.265625 L 11.953125 -9.265625 L 11.953125 -9.46875 C 11.878906 -10.820312 11.515625 -11.875 10.859375 -12.625 C 10.203125 -13.375 9.3125 -13.75 8.1875 -13.75 Z M 8.1875 -13.75 "/></g></g></g><g fill="#4d7051" fill-opacity="1"><g transform="translate(192.778438, 43.65773)"><g><path d="M 5.65625 -19.453125 L 5.65625 -15.65625 L 8.578125 -15.65625 L 8.578125 -13.59375 L 5.65625 -13.59375 L 5.65625 -3.875 C 5.65625 -3.25 5.785156 -2.78125 6.046875 -2.46875 C 6.304688 -2.15625 6.75 -2 7.375 -2 C 7.6875 -2 8.113281 -2.054688 8.65625 -2.171875 L 8.65625 0 C 7.945312 0.195312 7.257812 0.296875 6.59375 0.296875 C 5.40625 0.296875 4.503906 -0.0625 3.890625 -0.78125 C 3.285156 -1.507812 2.984375 -2.539062 2.984375 -3.875 L 2.984375 -13.59375 L 0.125 -13.59375 L 0.125 -15.65625 L 2.984375 -15.65625 L 2.984375 -19.453125 Z M 5.65625 -19.453125 "/></g></g></g><g fill="#4d7051" fill-opacity="1"><g transform="translate(208.390601, 43.65773)"><g><path d="M 17.28125 -21.078125 L 17.28125 -6.75 C 17.269531 -4.757812 16.644531 -3.128906 15.40625 -1.859375 C 14.164062 -0.597656 12.484375 0.109375 10.359375 0.265625 L 9.625 0.296875 C 7.320312 0.296875 5.484375 -0.320312 4.109375 -1.5625 C 2.742188 -2.8125 2.050781 -4.53125 2.03125 -6.71875 L 2.03125 -21.078125 L 4.78125 -21.078125 L 4.78125 -6.796875 C 4.78125 -5.273438 5.195312 -4.09375 6.03125 -3.25 C 6.875 -2.40625 8.070312 -1.984375 9.625 -1.984375 C 11.195312 -1.984375 12.398438 -2.398438 13.234375 -3.234375 C 14.066406 -4.078125 14.484375 -5.257812 14.484375 -6.78125 L 14.484375 -21.078125 Z M 17.28125 -21.078125 "/></g></g></g><g fill="#4d7051" fill-opacity="1"><g transform="translate(233.541162, 43.65773)"><g><path d="M 5.421875 0 L 2.65625 0 L 2.65625 -21.078125 L 5.421875 -21.078125 Z M 5.421875 0 "/></g></g></g><g clip-path="url(#44a44d71a4)"><g clip-path="url(#49a475b13b)"><g clip-path="url(#d3ad301c31)"><g clip-path="url(#456e3647d5)"><path fill="#7ec987" d="M 40.238281 26.082031 C 39.992188 26.828125 39.226562 27.21875 38.484375 26.976562 C 37.746094 26.730469 37.363281 25.960938 37.609375 25.214844 C 38.980469 21.054688 41.175781 17.441406 43.75 14.609375 C 46.496094 11.546875 49.765625 9.398438 53.246094 8.234375 C 53.851562 8.0625 54.425781 8.253906 54.785156 8.832031 C 56.84375 11.722656 58.160156 15.480469 58.578125 19.488281 C 58.960938 23.296875 58.574219 27.507812 57.203125 31.664062 C 56.957031 32.414062 56.191406 32.804688 55.453125 32.558594 C 54.710938 32.316406 54.328125 31.546875 54.574219 30.800781 C 55.8125 27.054688 56.25 23.230469 55.835938 19.78125 C 55.503906 16.632812 54.570312 13.640625 53.0625 11.304688 C 50.453125 12.285156 47.933594 14.132812 45.792969 16.46875 C 43.464844 19.039062 41.46875 22.34375 40.238281 26.082031 Z M 40.238281 26.082031 " fill-opacity="1" fill-rule="nonzero"/></g></g></g></g><g clip-path="url(#bbd552f65f)"><g clip-path="url(#0faa53a155)"><g clip-path="url(#0886f74ace)"><g clip-path="url(#a654220c1e)"><path fill="#7ec987" d="M 32.550781 45.496094 C 33.101562 46.050781 33.097656 46.875 32.546875 47.4375 C 31.996094 47.996094 31.097656 47.972656 30.621094 47.445312 C 29.53125 46.34375 28.539062 45.1875 27.652344 43.980469 C 26.808594 42.6875 25.949219 41.390625 25.238281 39.957031 C 23.316406 36.097656 22.300781 31.980469 22.21875 28.074219 C 22.003906 24.035156 22.832031 20.15625 24.453125 16.910156 C 24.722656 16.355469 25.382812 16.015625 25.984375 16.128906 C 29.527344 16.738281 33.09375 18.386719 36.175781 20.960938 C 39.21875 23.347656 41.882812 26.625 43.785156 30.574219 C 44.472656 31.816406 44.960938 33.089844 45.488281 34.277344 C 46.617188 33.632812 47.765625 32.902344 49.058594 32.316406 C 53.015625 30.296875 57.019531 29.21875 60.894531 29.113281 C 64.980469 28.890625 68.746094 29.675781 71.960938 31.289062 C 72.59375 31.585938 72.839844 32.222656 72.726562 32.828125 C 72.097656 36.402344 70.445312 40.011719 67.871094 43.128906 C 65.484375 46.210938 62.21875 48.917969 58.375 50.886719 C 56.949219 51.613281 55.5 52.148438 54.039062 52.679688 C 52.613281 53.136719 51.132812 53.476562 49.679688 53.730469 C 48.90625 53.84375 48.171875 53.320312 48.058594 52.550781 C 47.945312 51.785156 48.449219 51.109375 49.210938 50.992188 C 50.550781 50.789062 51.84375 50.476562 53.1875 49.992188 C 54.503906 49.597656 55.800781 49.011719 57.113281 48.332031 C 60.628906 46.539062 63.589844 44.203125 65.78125 41.414062 C 67.707031 38.914062 69.15625 36.164062 69.789062 33.417969 C 67.15625 32.277344 64.140625 31.742188 60.980469 31.898438 C 57.550781 32.050781 53.871094 32.964844 50.355469 34.757812 C 48.929688 35.488281 47.691406 36.191406 46.539062 36.910156 C 48.566406 42.933594 48.324219 47.003906 47.089844 49.636719 C 45.476562 53.160156 42.070312 54.0625 39.265625 53.140625 C 36.464844 52.214844 34.273438 49.464844 35.058594 45.671875 C 35.632812 42.820312 37.941406 39.425781 43.152344 35.792969 C 42.65625 34.519531 42 33.203125 41.285156 31.765625 C 39.527344 28.234375 37.195312 25.351562 34.449219 23.148438 C 32.003906 21.140625 29.257812 19.777344 26.460938 19.128906 C 25.414062 21.75 24.863281 24.792969 25 27.976562 C 25.105469 31.519531 26.015625 35.136719 27.777344 38.667969 C 28.4375 40 29.121094 41.238281 29.945312 42.335938 C 30.742188 43.515625 31.59375 44.539062 32.550781 45.496094 Z M 44.628906 48.464844 C 45.558594 46.460938 45.613281 43.253906 44.078125 38.507812 C 40.015625 41.410156 38.152344 44.019531 37.796875 46.210938 C 37.351562 48.378906 38.5625 49.976562 40.128906 50.492188 C 41.695312 51.007812 43.617188 50.445312 44.628906 48.464844 Z M 44.628906 48.464844 " fill-opacity="1" fill-rule="nonzero"/></g></g></g></g></svg>