<svg xmlns="http://www.w3.org/2000/svg" xmlns:xlink="http://www.w3.org/1999/xlink" width="641" zoomAndPan="magnify" viewBox="0 0 480.75 93.749996" height="125" preserveAspectRatio="xMidYMid meet" version="1.0"><defs><g/><clipPath id="3d182b582f"><rect x="0" width="263" y="0" height="55"/></clipPath><clipPath id="4d5ee9f66f"><path d="M 55 12 L 88 12 L 88 50 L 55 50 Z M 55 12 " clip-rule="nonzero"/></clipPath><clipPath id="fcb639b8b8"><path d="M 42.660156 0 L 117.960938 24.835938 L 95.46875 93.03125 L 20.171875 68.195312 Z M 42.660156 0 " clip-rule="nonzero"/></clipPath><clipPath id="a0e4ed48d3"><path d="M 42.648438 -0.00390625 L 117.945312 24.828125 L 95.457031 93.023438 L 20.15625 68.191406 Z M 42.648438 -0.00390625 " clip-rule="nonzero"/></clipPath><clipPath id="b311e94c93"><path d="M 42.648438 -0.00390625 L 117.945312 24.828125 L 95.457031 93.023438 L 20.15625 68.191406 Z M 42.648438 -0.00390625 " clip-rule="nonzero"/></clipPath><clipPath id="c1dfe49005"><path d="M 31 24 L 109 24 L 109 82 L 31 82 Z M 31 24 " clip-rule="nonzero"/></clipPath><clipPath id="2c1e6646c4"><path d="M 42.660156 0 L 117.960938 24.835938 L 95.46875 93.03125 L 20.171875 68.195312 Z M 42.660156 0 " clip-rule="nonzero"/></clipPath><clipPath id="d9a50d3f10"><path d="M 42.648438 -0.00390625 L 117.945312 24.828125 L 95.457031 93.023438 L 20.15625 68.191406 Z M 42.648438 -0.00390625 " clip-rule="nonzero"/></clipPath><clipPath id="582bad1e9a"><path d="M 42.648438 -0.00390625 L 117.945312 24.828125 L 95.457031 93.023438 L 20.15625 68.191406 Z M 42.648438 -0.00390625 " clip-rule="nonzero"/></clipPath></defs><g transform="matrix(1, 0, 0, 1, 113, 24)"><g clip-path="url(#3d182b582f)"><g fill="#4d7051" fill-opacity="1"><g transform="translate(0.249632, 42.678909)"><g><path d="M 9.5 -5.328125 L 23.59375 -5.328125 L 23.59375 0 L 2.875 0 L 2.875 -32.1875 L 9.5 -32.1875 Z M 9.5 -5.328125 "/></g></g></g><g fill="#4d7051" fill-opacity="1"><g transform="translate(33.821053, 42.678909)"><g><path d="M 13.46875 0.4375 C 9.957031 0.4375 7.097656 -0.632812 4.890625 -2.78125 C 2.691406 -4.9375 1.59375 -7.804688 1.59375 -11.390625 L 1.59375 -12 C 1.59375 -14.40625 2.054688 -16.554688 2.984375 -18.453125 C 3.910156 -20.347656 5.222656 -21.804688 6.921875 -22.828125 C 8.628906 -23.847656 10.570312 -24.359375 12.75 -24.359375 C 16.03125 -24.359375 18.609375 -23.328125 20.484375 -21.265625 C 22.359375 -19.203125 23.296875 -16.273438 23.296875 -12.484375 L 23.296875 -9.890625 L 8.0625 -9.890625 C 8.269531 -8.328125 8.894531 -7.070312 9.9375 -6.125 C 10.976562 -5.175781 12.296875 -4.703125 13.890625 -4.703125 C 16.347656 -4.703125 18.269531 -5.597656 19.65625 -7.390625 L 22.796875 -3.875 C 21.835938 -2.507812 20.539062 -1.445312 18.90625 -0.6875 C 17.269531 0.0625 15.457031 0.4375 13.46875 0.4375 Z M 12.734375 -19.1875 C 11.460938 -19.1875 10.429688 -18.757812 9.640625 -17.90625 C 8.859375 -17.050781 8.359375 -15.828125 8.140625 -14.234375 L 17.03125 -14.234375 L 17.03125 -14.75 C 17 -16.164062 16.613281 -17.257812 15.875 -18.03125 C 15.132812 -18.800781 14.085938 -19.1875 12.734375 -19.1875 Z M 12.734375 -19.1875 "/></g></g></g><g fill="#4d7051" fill-opacity="1"><g transform="translate(67.34826, 42.678909)"><g><path d="M 16.3125 0 C 16.019531 -0.570312 15.804688 -1.285156 15.671875 -2.140625 C 14.128906 -0.421875 12.117188 0.4375 9.640625 0.4375 C 7.296875 0.4375 5.351562 -0.238281 3.8125 -1.59375 C 2.269531 -2.945312 1.5 -4.65625 1.5 -6.71875 C 1.5 -9.257812 2.4375 -11.207031 4.3125 -12.5625 C 6.195312 -13.914062 8.914062 -14.597656 12.46875 -14.609375 L 15.40625 -14.609375 L 15.40625 -15.984375 C 15.40625 -17.085938 15.117188 -17.972656 14.546875 -18.640625 C 13.984375 -19.304688 13.09375 -19.640625 11.875 -19.640625 C 10.800781 -19.640625 9.957031 -19.378906 9.34375 -18.859375 C 8.726562 -18.347656 8.421875 -17.640625 8.421875 -16.734375 L 2.03125 -16.734375 C 2.03125 -18.117188 2.457031 -19.398438 3.3125 -20.578125 C 4.164062 -21.765625 5.375 -22.691406 6.9375 -23.359375 C 8.5 -24.023438 10.253906 -24.359375 12.203125 -24.359375 C 15.148438 -24.359375 17.488281 -23.617188 19.21875 -22.140625 C 20.957031 -20.660156 21.828125 -18.578125 21.828125 -15.890625 L 21.828125 -5.53125 C 21.835938 -3.257812 22.148438 -1.539062 22.765625 -0.375 L 22.765625 0 Z M 11.03125 -4.4375 C 11.976562 -4.4375 12.847656 -4.644531 13.640625 -5.0625 C 14.429688 -5.488281 15.019531 -6.054688 15.40625 -6.765625 L 15.40625 -10.875 L 13.015625 -10.875 C 9.816406 -10.875 8.117188 -9.769531 7.921875 -7.5625 L 7.890625 -7.1875 C 7.890625 -6.382812 8.171875 -5.722656 8.734375 -5.203125 C 9.296875 -4.691406 10.0625 -4.4375 11.03125 -4.4375 Z M 11.03125 -4.4375 "/></g></g></g><g fill="#4d7051" fill-opacity="1"><g transform="translate(100.676511, 42.678909)"><g><path d="M 4.203125 0 L 4.203125 -19.234375 L 0.640625 -19.234375 L 0.640625 -23.921875 L 4.203125 -23.921875 L 4.203125 -25.953125 C 4.203125 -28.640625 4.972656 -30.722656 6.515625 -32.203125 C 8.054688 -33.679688 10.210938 -34.421875 12.984375 -34.421875 C 13.867188 -34.421875 14.953125 -34.273438 16.234375 -33.984375 L 16.15625 -29.03125 C 15.625 -29.164062 14.976562 -29.234375 14.21875 -29.234375 C 11.8125 -29.234375 10.609375 -28.101562 10.609375 -25.84375 L 10.609375 -23.921875 L 15.359375 -23.921875 L 15.359375 -19.234375 L 10.609375 -19.234375 L 10.609375 0 Z M 4.203125 0 "/></g></g></g><g fill="#4d7051" fill-opacity="1"><g transform="translate(125.97297, 42.678909)"><g><path d="M 7.546875 0 L 3.453125 0 L 3.453125 -33.96875 L 7.546875 -33.96875 Z M 7.546875 0 "/></g></g></g><g fill="#4d7051" fill-opacity="1"><g transform="translate(146.015294, 42.678909)"><g><path d="M 13.015625 0.4375 C 9.773438 0.4375 7.140625 -0.625 5.109375 -2.75 C 3.078125 -4.882812 2.0625 -7.734375 2.0625 -11.296875 L 2.0625 -12.046875 C 2.0625 -14.421875 2.515625 -16.539062 3.421875 -18.40625 C 4.328125 -20.269531 5.59375 -21.726562 7.21875 -22.78125 C 8.84375 -23.832031 10.609375 -24.359375 12.515625 -24.359375 C 15.617188 -24.359375 18.035156 -23.332031 19.765625 -21.28125 C 21.492188 -19.238281 22.359375 -16.304688 22.359375 -12.484375 L 22.359375 -10.796875 L 6.140625 -10.796875 C 6.203125 -8.429688 6.890625 -6.519531 8.203125 -5.0625 C 9.523438 -3.613281 11.207031 -2.890625 13.25 -2.890625 C 14.6875 -2.890625 15.90625 -3.1875 16.90625 -3.78125 C 17.914062 -4.375 18.796875 -5.15625 19.546875 -6.125 L 22.046875 -4.171875 C 20.035156 -1.097656 17.023438 0.4375 13.015625 0.4375 Z M 12.515625 -21 C 10.859375 -21 9.46875 -20.398438 8.34375 -19.203125 C 7.226562 -18.003906 6.539062 -16.320312 6.28125 -14.15625 L 18.265625 -14.15625 L 18.265625 -14.453125 C 18.148438 -16.535156 17.585938 -18.144531 16.578125 -19.28125 C 15.578125 -20.425781 14.222656 -21 12.515625 -21 Z M 12.515625 -21 "/></g></g></g><g fill="#4d7051" fill-opacity="1"><g transform="translate(179.056162, 42.678909)"><g><path d="M 8.640625 -29.71875 L 8.640625 -23.921875 L 13.109375 -23.921875 L 13.109375 -20.765625 L 8.640625 -20.765625 L 8.640625 -5.921875 C 8.640625 -4.960938 8.835938 -4.242188 9.234375 -3.765625 C 9.640625 -3.285156 10.320312 -3.046875 11.28125 -3.046875 C 11.75 -3.046875 12.394531 -3.132812 13.21875 -3.3125 L 13.21875 0 C 12.144531 0.289062 11.097656 0.4375 10.078125 0.4375 C 8.253906 0.4375 6.875 -0.113281 5.9375 -1.21875 C 5.007812 -2.320312 4.546875 -3.890625 4.546875 -5.921875 L 4.546875 -20.765625 L 0.203125 -20.765625 L 0.203125 -23.921875 L 4.546875 -23.921875 L 4.546875 -29.71875 Z M 8.640625 -29.71875 "/></g></g></g><g fill="#4d7051" fill-opacity="1"><g transform="translate(202.900781, 42.678909)"><g><path d="M 26.40625 -32.1875 L 26.40625 -10.296875 C 26.382812 -7.265625 25.425781 -4.78125 23.53125 -2.84375 C 21.632812 -0.914062 19.066406 0.160156 15.828125 0.390625 L 14.703125 0.4375 C 11.179688 0.4375 8.375 -0.507812 6.28125 -2.40625 C 4.1875 -4.3125 3.125 -6.929688 3.09375 -10.265625 L 3.09375 -32.1875 L 7.296875 -32.1875 L 7.296875 -10.390625 C 7.296875 -8.054688 7.9375 -6.242188 9.21875 -4.953125 C 10.5 -3.671875 12.328125 -3.03125 14.703125 -3.03125 C 17.109375 -3.03125 18.945312 -3.671875 20.21875 -4.953125 C 21.488281 -6.234375 22.125 -8.039062 22.125 -10.375 L 22.125 -32.1875 Z M 26.40625 -32.1875 "/></g></g></g><g fill="#4d7051" fill-opacity="1"><g transform="translate(241.313495, 42.678909)"><g><path d="M 8.296875 0 L 4.046875 0 L 4.046875 -32.1875 L 8.296875 -32.1875 Z M 8.296875 0 "/></g></g></g></g></g><g clip-path="url(#4d5ee9f66f)"><g clip-path="url(#fcb639b8b8)"><g clip-path="url(#a0e4ed48d3)"><g clip-path="url(#b311e94c93)"><path fill="#7ec987" d="M 59.1875 39.570312 C 58.8125 40.699219 57.644531 41.289062 56.515625 40.914062 C 55.382812 40.542969 54.796875 39.375 55.167969 38.242188 C 57.246094 31.949219 60.582031 26.480469 64.503906 22.195312 C 68.683594 17.566406 73.664062 14.324219 78.972656 12.578125 C 79.898438 12.320312 80.777344 12.609375 81.328125 13.484375 C 84.484375 17.875 86.511719 23.578125 87.164062 29.652344 C 87.765625 35.429688 87.195312 41.808594 85.117188 48.105469 C 84.746094 49.234375 83.578125 49.824219 82.449219 49.453125 C 81.316406 49.078125 80.730469 47.910156 81.101562 46.78125 C 82.972656 41.109375 83.628906 35.320312 82.980469 30.085938 C 82.460938 25.3125 81.019531 20.777344 78.710938 17.226562 C 74.726562 18.703125 70.886719 21.496094 67.628906 25.023438 C 64.085938 28.90625 61.050781 33.914062 59.1875 39.570312 Z M 59.1875 39.570312 " fill-opacity="1" fill-rule="nonzero"/></g></g></g></g><g clip-path="url(#c1dfe49005)"><g clip-path="url(#2c1e6646c4)"><g clip-path="url(#d9a50d3f10)"><g clip-path="url(#582bad1e9a)"><path fill="#7ec987" d="M 47.53125 68.960938 C 48.375 69.800781 48.375 71.054688 47.535156 71.898438 C 46.695312 72.746094 45.320312 72.703125 44.597656 71.90625 C 42.921875 70.230469 41.40625 68.476562 40.046875 66.640625 C 38.75 64.679688 37.433594 62.710938 36.339844 60.535156 C 33.390625 54.675781 31.820312 48.433594 31.679688 42.511719 C 31.335938 36.390625 32.582031 30.515625 35.046875 25.601562 C 35.453125 24.761719 36.460938 24.253906 37.378906 24.421875 C 42.792969 25.367188 48.246094 27.875 52.960938 31.789062 C 57.617188 35.421875 61.699219 40.398438 64.621094 46.394531 C 65.679688 48.277344 66.429688 50.210938 67.238281 52.011719 C 68.960938 51.042969 70.710938 49.9375 72.683594 49.054688 C 78.71875 46.011719 84.824219 44.394531 90.746094 44.25 C 96.984375 43.933594 102.738281 45.136719 107.652344 47.597656 C 108.625 48.050781 108.996094 49.015625 108.828125 49.933594 C 107.882812 55.347656 105.371094 60.808594 101.457031 65.523438 C 97.828125 70.183594 92.851562 74.269531 86.988281 77.238281 C 84.8125 78.335938 82.601562 79.140625 80.375 79.941406 C 78.203125 80.628906 75.941406 81.136719 73.722656 81.511719 C 72.542969 81.683594 71.421875 80.882812 71.246094 79.71875 C 71.066406 78.554688 71.832031 77.535156 72.996094 77.359375 C 75.042969 77.058594 77.011719 76.589844 79.066406 75.863281 C 81.074219 75.269531 83.046875 74.386719 85.050781 73.363281 C 90.414062 70.660156 94.925781 67.132812 98.261719 62.917969 C 101.191406 59.132812 103.386719 54.972656 104.347656 50.816406 C 100.320312 49.074219 95.710938 48.246094 90.886719 48.472656 C 85.652344 48.691406 80.039062 50.058594 74.675781 52.761719 C 72.5 53.859375 70.617188 54.921875 68.855469 56.007812 C 71.980469 65.140625 71.625 71.3125 69.75 75.300781 C 67.300781 80.628906 62.101562 81.984375 57.820312 80.574219 C 53.535156 79.160156 50.179688 74.984375 51.363281 69.234375 C 52.226562 64.914062 55.734375 59.785156 63.679688 54.300781 C 62.914062 52.367188 61.910156 50.367188 60.8125 48.191406 C 58.109375 42.828125 54.542969 38.449219 50.335938 35.097656 C 46.589844 32.046875 42.394531 29.972656 38.121094 28.972656 C 36.535156 32.9375 35.707031 37.550781 35.929688 42.378906 C 36.101562 47.75 37.511719 53.230469 40.210938 58.59375 C 41.230469 60.613281 42.273438 62.492188 43.539062 64.164062 C 44.761719 65.953125 46.0625 67.503906 47.53125 68.960938 Z M 65.984375 73.511719 C 67.398438 70.480469 67.46875 65.617188 65.109375 58.421875 C 58.914062 62.796875 56.078125 66.746094 55.542969 70.070312 C 54.875 73.347656 56.730469 75.773438 59.125 76.5625 C 61.519531 77.355469 64.453125 76.507812 65.984375 73.511719 Z M 65.984375 73.511719 " fill-opacity="1" fill-rule="nonzero"/></g></g></g></g></svg>